<svg id="ContactActive" xmlns="http://www.w3.org/2000/svg" viewBox="0 0 66.69 73.98"><defs><style>.cls-1{fill:none;}.cls-1,.cls-2{stroke:#f99685;stroke-miterlimit:10;stroke-width:3px;}.cls-2{fill:#f99685;}</style></defs><title>contact-active</title><line class="cls-1" x1="6.48" y1="24.25" y2="24.25"/><line class="cls-1" x1="6.76" y1="36.99" y2="36.99"/><line class="cls-1" x1="6.76" y1="49.73" y2="49.73"/><path class="cls-2" d="M228.18,506H202.25a16,16,0,0,0-16,16v39a16,16,0,0,0,16,16h25.93a16,16,0,0,0,16-16V522A16,16,0,0,0,228.18,506Zm-13,15a9.18,9.18,0,1,1-9.17,9.17A9.18,9.18,0,0,1,215.21,521Zm18.84,34.47c0,1.3-1.38,2.37-3.05,2.37H199.43c-1.67,0-3.05-1.07-3.05-2.37v-6.78c0-1.3,7.33-8,18.83-8s18.84,6.74,18.84,8Z" transform="translate(-179 -504.52)"/></svg>