<svg id="Home" xmlns="http://www.w3.org/2000/svg" viewBox="0 0 77.48 71.81"><defs><style>.cls-1{fill:none;stroke:#f99685;stroke-miterlimit:10;stroke-width:3px;}</style></defs><title>home</title><path class="cls-1" d="M358.88,221.45h-4.43a1.56,1.56,0,0,0-1.6,1.52v30.51a1.56,1.56,0,0,1-1.6,1.52H331.36V231.87a2.75,2.75,0,0,0-2.82-2.68H317.62a2.75,2.75,0,0,0-2.82,2.68V255H295.54a1.55,1.55,0,0,1-1.59-1.52V223a1.56,1.56,0,0,0-1.6-1.52H287.6a1.52,1.52,0,0,1-1.1-2.63l35.64-32.21a1.64,1.64,0,0,1,2.19,0l10.79,9.75a.89.89,0,0,0,1.49-.61v-3.9a1.56,1.56,0,0,1,1.6-1.53h7a1.56,1.56,0,0,1,1.59,1.53v14.41a1.46,1.46,0,0,0,.5,1.1L360,218.82A1.52,1.52,0,0,1,358.88,221.45Z" transform="translate(-284.5 -184.69)"/></svg>