<svg id="Work" xmlns="http://www.w3.org/2000/svg" viewBox="0 0 77.44 62"><defs><style>.cls-1{fill:none;stroke:#f99685;stroke-miterlimit:10;stroke-width:3px;}</style></defs><title>work</title><path class="cls-1" d="M361.44,420.9v26.64a11.75,11.75,0,0,1-12,11.46H299c-6.63,0-12-5.13-12-11.46V420.9c0-6.33,5.39-11.46,12-11.46h50.4A11.75,11.75,0,0,1,361.44,420.9Z" transform="translate(-285.5 -398.5)"/><rect class="cls-1" x="27.06" y="1.5" width="23.33" height="9.44"/><line class="cls-1" x1="76.5" y1="24.51" x2="47.61" y2="32.56"/><line class="cls-1" x1="29.83" y1="32.52" x2="2.06" y2="24.51"/><path class="cls-1" d="M332.56,428.66v5.22c0,2.14-3.13,3.88-7,3.88h-2.72c-3.85,0-7-1.74-7-3.88v-5.22c0-2.14,3.12-3.88,7-3.88h2.72C329.43,424.78,332.56,426.52,332.56,428.66Z" transform="translate(-285.5 -398.5)"/></svg>