<svg id="WorkActive" xmlns="http://www.w3.org/2000/svg" viewBox="0 0 77.5 62"><defs><style>.cls-1{fill:none;}.cls-1,.cls-2{stroke:#f99685;stroke-miterlimit:10;stroke-width:3px;}.cls-2{fill:#f99685;}</style></defs><title>work-active</title><rect class="cls-1" x="27.06" y="1.5" width="23.33" height="9.44"/><path class="cls-1" d="M223.11,435.06" transform="translate(-175.5 -398.5)"/><path class="cls-1" d="M252,427" transform="translate(-175.5 -398.5)"/><path class="cls-1" d="M177.56,427" transform="translate(-175.5 -398.5)"/><path class="cls-1" d="M205.33,435" transform="translate(-175.5 -398.5)"/><path class="cls-2" d="M224.37,434.3a4.52,4.52,0,0,1-.56,1.25c-1.3,2-2.57,4-6.07,4h-7c-3.52,0-5.09-2.69-6.25-4.93l-.09-.23L177,426v21.53c0,6.33,5.39,11.46,12,11.46h50.4a11.75,11.75,0,0,0,12-11.46V426Z" transform="translate(-175.5 -398.5)"/><path class="cls-2" d="M239.48,408.76h-50.4c-6.64,0-12,6.44-12,9.45v2.12l28,8.26c.65-2,3.84-3.59,7.69-3.59h3c3.87,0,7.07,1.56,7.7,3.61l28.06-8.28v-2.12C251.5,415.2,246.11,408.76,239.48,408.76Z" transform="translate(-175.5 -398.5)"/></svg>